<?xml version="1.0" encoding="utf-8"?>
<svg version="1.1" xmlns="http://www.w3.org/2000/svg" xmlns:xlink="http://www.w3.org/1999/xlink" xml:space="preserve">
	<defs>
		<g id="icon-page-heading1">
			<polygon class="page-heading-polygon" points="11.8,25 0,25 6.2,0 18,0 "/>
		</g>
		<g id="icon-page-heading2">
			<polygon class="page-heading-polygon" points="11.8,12 0,12 6.2,0 18,0 "/>
			<polygon class="page-heading-polygon" fill="currentColor" points="11.8,25 0,25 6.2,13 18,13 "/>
		</g>
		<g id="icon-facebook">
			<path d="M35,17.5C35,27.2,27.2,35,17.5,35C7.8,35,0,27.2,0,17.5S7.8,0,17.5,0C27.2,0,35,7.8,35,17.5z M13.7,30h5.5 V17h3.8c0,0,0.3-1.1,0.5-3.3c-0.5,0-4.3,0-4.3,0s0-2.9,0-3.3c0-0.4,0.9-1,1.5-1c0.6,0,1.8,0,2.9,0c0,0,0-3.3,0-4.4 c-1.1,0-3.2,0-3.9,0c-5.4,0-5.9,4.2-5.9,4.8c0,0.6,0,3.9,0,3.9h-2.2V17h2.2V30z"/>
		</g>
	</defs>
</svg>